<svg width="20" height="20" fill="none" xmlns="http://www.w3.org/2000/svg"><path d="M10 1.25a8.75 8.75 0 10.001 17.501A8.75 8.75 0 0010 1.25zm0 16.016a7.267 7.267 0 010-14.532 7.267 7.267 0 010 14.532zm.11-10.405c1.035 0 1.738.66 1.816 1.63a.156.156 0 00.156.144h1.107a.092.092 0 00.092-.092c0-1.693-1.336-2.879-3.178-2.879-2.146 0-3.384 1.45-3.384 3.844v1.021c0 2.377 1.238 3.807 3.385 3.807 1.836 0 3.177-1.149 3.177-2.762a.092.092 0 00-.091-.092h-1.11a.157.157 0 00-.156.143c-.082.9-.783 1.52-1.817 1.52-1.275 0-1.994-.936-1.994-2.61V9.508c.002-1.7.723-2.647 1.996-2.647z" fill="#000"/></svg>