<svg width="30" height="30" fill="none" xmlns="http://www.w3.org/2000/svg"><path d="M26.184 10.381a8.16 8.16 0 00-.524-2.77 5.762 5.762 0 00-3.291-3.291 8.258 8.258 0 00-2.733-.525c-1.202-.054-1.584-.069-4.636-.069-3.053 0-3.444 0-4.638.069a8.258 8.258 0 00-2.73.525A5.759 5.759 0 004.34 7.61a8.193 8.193 0 00-.524 2.731c-.054 1.204-.07 1.585-.07 4.638 0 3.052 0 3.442.07 4.637.019.935.195 1.858.524 2.734a5.762 5.762 0 003.292 3.29 8.23 8.23 0 002.732.563c1.203.053 1.585.07 4.637.07 3.053 0 3.444 0 4.638-.07a8.237 8.237 0 002.732-.524 5.77 5.77 0 003.291-3.291 8.232 8.232 0 00.524-2.734c.054-1.203.07-1.584.07-4.638-.002-3.052-.002-3.44-.072-4.636zM14.992 20.752a5.777 5.777 0 01-5.778-5.778 5.777 5.777 0 019.864-4.087 5.778 5.778 0 01-4.086 9.865zm6.01-10.423a1.346 1.346 0 01-.517-2.592 1.348 1.348 0 11.516 2.592z" fill="#000"/><path d="M14.754 18.508a3.754 3.754 0 100-7.508 3.754 3.754 0 000 7.508z" fill="#000"/></svg>